<?xml version="1.0" encoding="utf-8"?>
<!-- Generator: Adobe Illustrator 27.5.0, SVG Export Plug-In . SVG Version: 6.00 Build 0)  -->
<svg version="1.1" id="Layer_1" xmlns:xodm="http://www.corel.com/coreldraw/odm/2003"
	 xmlns="http://www.w3.org/2000/svg" xmlns:xlink="http://www.w3.org/1999/xlink" x="0px" y="0px" viewBox="0 0 4000 4000"
	 style="enable-background:new 0 0 4000 4000;" xml:space="preserve">
<rect style="fill-rule:evenodd;clip-rule:evenodd;fill:#FFFFFF;" width="4000" height="4000"/>
<g>
	
		<linearGradient id="SVGID_1_" gradientUnits="userSpaceOnUse" x1="864.6138" y1="1920.0118" x2="1044.0037" y2="1523.8914" gradientTransform="matrix(1 0 0 -1 0 4002)">
		<stop  offset="0" style="stop-color:#0049E7"/>
		<stop  offset="1" style="stop-color:#C835F8"/>
	</linearGradient>
	<path style="fill-rule:evenodd;clip-rule:evenodd;fill:url(#SVGID_1_);" d="M1047.97,1941.66l-349.61,626.68
		c322.23-89.24,419.52-200.43,460.76-324.63l32.49-293.13L1047.97,1941.66L1047.97,1941.66z"/>
	<defs>
		<filter id="Adobe_OpacityMaskFilter" filterUnits="userSpaceOnUse" x="698.36" y="2005.16" width="400.24" height="563.18">
			<feColorMatrix  type="matrix" values="1 0 0 0 0  0 1 0 0 0  0 0 1 0 0  0 0 0 1 0"/>
		</filter>
	</defs>
	<mask maskUnits="userSpaceOnUse" x="698.36" y="2005.16" width="400.24" height="563.18" id="id0_1_">
		<defs>
			
				<filter id="Adobe_OpacityMaskFilter_00000075842934696695631110000005843734115216999048_" filterUnits="userSpaceOnUse" x="697.32" y="2004.12" width="402.32" height="565.26">
				<feFlood  style="flood-color:white;flood-opacity:1" result="back"/>
				<feBlend  in="SourceGraphic" in2="back" mode="normal"/>
			</filter>
		</defs>
		
			<mask maskUnits="userSpaceOnUse" x="697.32" y="2004.12" width="402.32" height="565.26" id="id0_1_" style="filter:url(#Adobe_OpacityMaskFilter);">
			<g style="filter:url(#Adobe_OpacityMaskFilter_00000075842934696695631110000005843734115216999048_);">
				<defs>
					
						<filter id="Adobe_OpacityMaskFilter_00000015315660494323845260000010153476164993273997_" filterUnits="userSpaceOnUse" x="697.32" y="2004.12" width="402.32" height="565.26">
						<feFlood  style="flood-color:white;flood-opacity:1" result="back"/>
						<feBlend  in="SourceGraphic" in2="back" mode="normal"/>
					</filter>
				</defs>
				<mask maskUnits="userSpaceOnUse" x="697.32" y="2004.12" width="402.32" height="565.26" id="id0_1_">
					<g style="filter:url(#Adobe_OpacityMaskFilter_00000015315660494323845260000010153476164993273997_);">
					</g>
				</mask>
				
					<linearGradient id="SVGID_00000039102775415207217590000007997473205546970545_" gradientUnits="userSpaceOnUse" x1="1657.3953" y1="3464.2324" x2="763.9456" y2="1405.2045" gradientTransform="matrix(1 0 0 -1 0 4002)">
					<stop  offset="0" style="stop-color:#FFFFFF"/>
					<stop  offset="1" style="stop-color:#000000"/>
				</linearGradient>
				
					<rect x="697.32" y="2004.12" style="mask:url(#id0_1_);fill-rule:evenodd;clip-rule:evenodd;fill:url(#SVGID_00000039102775415207217590000007997473205546970545_);" width="402.32" height="565.26"/>
			</g>
		</mask>
		
			<linearGradient id="SVGID_00000039814175431715318490000013731925148639599496_" gradientUnits="userSpaceOnUse" x1="1657.3953" y1="3464.2324" x2="763.9456" y2="1405.2045" gradientTransform="matrix(1 0 0 -1 0 4002)">
			<stop  offset="0" style="stop-color:#FFFFFF"/>
			<stop  offset="1" style="stop-color:#FFFFFF"/>
		</linearGradient>
		
			<rect x="697.32" y="2004.12" style="fill-rule:evenodd;clip-rule:evenodd;fill:url(#SVGID_00000039814175431715318490000013731925148639599496_);" width="402.32" height="565.26"/>
	</mask>
	<path style="fill-rule:evenodd;clip-rule:evenodd;fill:#000066;" d="M1012.54,2005.16l-314.18,563.18c2.3-0.64,4.56-1.28,6.84-1.92
		c121.94-53.44,220.71-133.24,284.19-290.22l109.21-270.11L1012.54,2005.16L1012.54,2005.16z"/>
	
		<linearGradient id="SVGID_00000002379193902692899690000006746895200078494383_" gradientUnits="userSpaceOnUse" x1="1337.3225" y1="2322.429" x2="1256.8326" y2="1809.2987" gradientTransform="matrix(1 0 0 -1 0 4002)">
		<stop  offset="0" style="stop-color:#0463EF"/>
		<stop  offset="1" style="stop-color:#4EEC91"/>
	</linearGradient>
	<path style="fill-rule:evenodd;clip-rule:evenodd;fill:url(#SVGID_00000002379193902692899690000006746895200078494383_);" d="
		M1516.87,1592.67c-584.2,153.7-711.32,588.16-711.32,588.16c301.52-292.78,794.77,58.18,975.97-444.22L1516.87,1592.67
		L1516.87,1592.67z"/>
	<defs>
		
			<filter id="Adobe_OpacityMaskFilter_00000074421723275743529930000003651911411645244039_" filterUnits="userSpaceOnUse" x="1046.45" y="1598.01" width="735.07" height="339.545">
			<feColorMatrix  type="matrix" values="1 0 0 0 0  0 1 0 0 0  0 0 1 0 0  0 0 0 1 0"/>
		</filter>
	</defs>
	<mask maskUnits="userSpaceOnUse" x="1046.45" y="1598.01" width="735.07" height="339.545" id="id2_1_">
		<defs>
			
				<filter id="Adobe_OpacityMaskFilter_00000127030386609156758590000014210382961202988964_" filterUnits="userSpaceOnUse" x="1046.45" y="1598.01" width="735.07" height="339.55">
				<feFlood  style="flood-color:white;flood-opacity:1" result="back"/>
				<feBlend  in="SourceGraphic" in2="back" mode="normal"/>
			</filter>
		</defs>
		
			<mask maskUnits="userSpaceOnUse" x="1046.45" y="1598.01" width="735.07" height="339.55" id="id2_1_" style="filter:url(#Adobe_OpacityMaskFilter_00000074421723275743529930000003651911411645244039_);">
			<g style="filter:url(#Adobe_OpacityMaskFilter_00000127030386609156758590000014210382961202988964_);">
				<defs>
					
						<filter id="Adobe_OpacityMaskFilter_00000126303439920961092080000017621934837299661225_" filterUnits="userSpaceOnUse" x="1046.45" y="1598.01" width="735.07" height="339.55">
						<feFlood  style="flood-color:white;flood-opacity:1" result="back"/>
						<feBlend  in="SourceGraphic" in2="back" mode="normal"/>
					</filter>
				</defs>
				<mask maskUnits="userSpaceOnUse" x="1046.45" y="1598.01" width="735.07" height="339.55" id="id2_1_">
					<g style="filter:url(#Adobe_OpacityMaskFilter_00000126303439920961092080000017621934837299661225_);">
					</g>
				</mask>
				
					<linearGradient id="SVGID_00000053541521450250981320000008047209116667245467_" gradientUnits="userSpaceOnUse" x1="-94.2523" y1="2385.8394" x2="1964.3201" y2="2178.8892" gradientTransform="matrix(1 0 0 -1 0 4002)">
					<stop  offset="0" style="stop-color:#FFFFFF"/>
					<stop  offset="1" style="stop-color:#000000"/>
				</linearGradient>
				
					<rect x="1046.45" y="1598.01" style="mask:url(#id2_1_);fill-rule:evenodd;clip-rule:evenodd;fill:url(#SVGID_00000053541521450250981320000008047209116667245467_);" width="735.07" height="339.55"/>
			</g>
		</mask>
		
			<linearGradient id="SVGID_00000043424238531428610310000014354984925227635642_" gradientUnits="userSpaceOnUse" x1="-94.2523" y1="2385.8394" x2="1964.3201" y2="2178.8892" gradientTransform="matrix(1 0 0 -1 0 4002)">
			<stop  offset="0" style="stop-color:#FFFFFF"/>
			<stop  offset="1" style="stop-color:#FFFFFF"/>
		</linearGradient>
		
			<rect x="1046.45" y="1598.01" style="fill-rule:evenodd;clip-rule:evenodd;fill:url(#SVGID_00000043424238531428610310000014354984925227635642_);" width="735.07" height="339.55"/>
	</mask>
	<path style="fill-rule:evenodd;clip-rule:evenodd;fill:#0000FF;" d="M1295.05,1672.94c-101.61,48.23-183.29,105.16-248.6,163.15
		c270.29,115.12,587.09,172.2,715.08-50.34c7.01-15.43,13.71-31.72,19.99-49.14l-254.84-138.6
		C1460.49,1636.59,1380.31,1660.19,1295.05,1672.94L1295.05,1672.94z"/>
	
		<linearGradient id="SVGID_00000052821464431216089720000011881785214524653202_" gradientUnits="userSpaceOnUse" x1="1209.6919" y1="2005.3629" x2="1426.4623" y2="2704.1321" gradientTransform="matrix(1 0 0 -1 0 4002)">
		<stop  offset="0" style="stop-color:#07ABA0"/>
		<stop  offset="1" style="stop-color:#ECF955"/>
	</linearGradient>
	<path style="fill-rule:evenodd;clip-rule:evenodd;fill:url(#SVGID_00000052821464431216089720000011881785214524653202_);" d="
		M690.63,1485.71c194.85,89.65,733.79,229.58,961.99,9.12c200.88-194.07,352.79,120.92,352.79,120.92
		c-121.82-45.68-183.89,36.01-212.09,97.22C1588.43,2157.68,898.84,1693.92,690.63,1485.71L690.63,1485.71z"/>
	<defs>
		
			<filter id="Adobe_OpacityMaskFilter_00000183243178110727379450000013992655666525807773_" filterUnits="userSpaceOnUse" x="690.63" y="1485.71" width="1102.69" height="413.665">
			<feColorMatrix  type="matrix" values="1 0 0 0 0  0 1 0 0 0  0 0 1 0 0  0 0 0 1 0"/>
		</filter>
	</defs>
	<mask maskUnits="userSpaceOnUse" x="690.63" y="1485.71" width="1102.69" height="413.665" id="id4_1_">
		<defs>
			
				<filter id="Adobe_OpacityMaskFilter_00000060734976707602315120000018017380020169152687_" filterUnits="userSpaceOnUse" x="689.59" y="1484.67" width="1104.77" height="415.74">
				<feFlood  style="flood-color:white;flood-opacity:1" result="back"/>
				<feBlend  in="SourceGraphic" in2="back" mode="normal"/>
			</filter>
		</defs>
		
			<mask maskUnits="userSpaceOnUse" x="689.59" y="1484.67" width="1104.77" height="415.74" id="id4_1_" style="filter:url(#Adobe_OpacityMaskFilter_00000183243178110727379450000013992655666525807773_);">
			<g style="filter:url(#Adobe_OpacityMaskFilter_00000060734976707602315120000018017380020169152687_);">
				<defs>
					
						<filter id="Adobe_OpacityMaskFilter_00000000204716279676284130000015560230515893861561_" filterUnits="userSpaceOnUse" x="689.59" y="1484.67" width="1104.77" height="415.74">
						<feFlood  style="flood-color:white;flood-opacity:1" result="back"/>
						<feBlend  in="SourceGraphic" in2="back" mode="normal"/>
					</filter>
				</defs>
				<mask maskUnits="userSpaceOnUse" x="689.59" y="1484.67" width="1104.77" height="415.74" id="id4_1_">
					<g style="filter:url(#Adobe_OpacityMaskFilter_00000000204716279676284130000015560230515893861561_);">
					</g>
				</mask>
				
					<linearGradient id="SVGID_00000047029700877833806420000010141795106972705972_" gradientUnits="userSpaceOnUse" x1="-1177.822" y1="3312.2429" x2="1799.8004" y2="2078.2927" gradientTransform="matrix(1 0 0 -1 0 4002)">
					<stop  offset="0" style="stop-color:#FFFFFF"/>
					<stop  offset="1" style="stop-color:#000000"/>
				</linearGradient>
				
					<rect x="689.59" y="1484.67" style="mask:url(#id4_1_);fill-rule:evenodd;clip-rule:evenodd;fill:url(#SVGID_00000047029700877833806420000010141795106972705972_);" width="1104.77" height="415.74"/>
			</g>
		</mask>
		
			<linearGradient id="SVGID_00000065039235073487758950000005064808092824661662_" gradientUnits="userSpaceOnUse" x1="-1177.822" y1="3312.2429" x2="1799.8004" y2="2078.2927" gradientTransform="matrix(1 0 0 -1 0 4002)">
			<stop  offset="0" style="stop-color:#FFFFFF"/>
			<stop  offset="1" style="stop-color:#FFFFFF"/>
		</linearGradient>
		
			<rect x="689.59" y="1484.67" style="fill-rule:evenodd;clip-rule:evenodd;fill:url(#SVGID_00000065039235073487758950000005064808092824661662_);" width="1104.77" height="415.74"/>
	</mask>
	<path style="fill-rule:evenodd;clip-rule:evenodd;fill:#003333;" d="M1776.32,1733.78c-150.6,172.53-363.76,112.95-558.71-20.37
		c-51.8-35.42-102.31-76.04-150.02-118.9c-153.89-25.05-295.5-71.32-376.96-108.8c83.37,83.36,243.91,207.7,419.61,298.29
		c255.03,131.49,542.02,191.86,671.28-47.39c4.09-7.58,8.03-15.46,11.8-23.64C1787.75,1720.25,1782.08,1727.19,1776.32,1733.78z"/>
	<defs>
		
			<filter id="Adobe_OpacityMaskFilter_00000023978688935369248950000009340492276187228313_" filterUnits="userSpaceOnUse" x="805.55" y="2004.539" width="538.21" height="176.291">
			<feColorMatrix  type="matrix" values="1 0 0 0 0  0 1 0 0 0  0 0 1 0 0  0 0 0 1 0"/>
		</filter>
	</defs>
	<mask maskUnits="userSpaceOnUse" x="805.55" y="2004.539" width="538.21" height="176.291" id="id6_1_">
		<defs>
			
				<filter id="Adobe_OpacityMaskFilter_00000163755240457083667280000013114391023046869413_" filterUnits="userSpaceOnUse" x="804.51" y="2003.5" width="540.29" height="178.37">
				<feFlood  style="flood-color:white;flood-opacity:1" result="back"/>
				<feBlend  in="SourceGraphic" in2="back" mode="normal"/>
			</filter>
		</defs>
		
			<mask maskUnits="userSpaceOnUse" x="804.51" y="2003.5" width="540.29" height="178.37" id="id6_1_" style="filter:url(#Adobe_OpacityMaskFilter_00000023978688935369248950000009340492276187228313_);">
			<g style="filter:url(#Adobe_OpacityMaskFilter_00000163755240457083667280000013114391023046869413_);">
				<defs>
					
						<filter id="Adobe_OpacityMaskFilter_00000002374034438776082640000010086785709912123311_" filterUnits="userSpaceOnUse" x="804.51" y="2003.5" width="540.29" height="178.37">
						<feFlood  style="flood-color:white;flood-opacity:1" result="back"/>
						<feBlend  in="SourceGraphic" in2="back" mode="normal"/>
					</filter>
				</defs>
				<mask maskUnits="userSpaceOnUse" x="804.51" y="2003.5" width="540.29" height="178.37" id="id6_1_">
					<g style="filter:url(#Adobe_OpacityMaskFilter_00000002374034438776082640000010086785709912123311_);">
					</g>
				</mask>
				
					<linearGradient id="SVGID_00000145751281323362900700000006672423310613323695_" gradientUnits="userSpaceOnUse" x1="786.7141" y1="1777.557" x2="1457.8438" y2="2084.657" gradientTransform="matrix(1 0 0 -1 0 4002)">
					<stop  offset="0" style="stop-color:#FFFFFF"/>
					<stop  offset="1" style="stop-color:#000000"/>
				</linearGradient>
				
					<rect x="804.51" y="2003.5" style="mask:url(#id6_1_);fill-rule:evenodd;clip-rule:evenodd;fill:url(#SVGID_00000145751281323362900700000006672423310613323695_);" width="540.29" height="178.37"/>
			</g>
		</mask>
		
			<linearGradient id="SVGID_00000081623415068508178480000002021477362868139427_" gradientUnits="userSpaceOnUse" x1="786.7141" y1="1777.557" x2="1457.8438" y2="2084.657" gradientTransform="matrix(1 0 0 -1 0 4002)">
			<stop  offset="0" style="stop-color:#FFFFFF"/>
			<stop  offset="1" style="stop-color:#FFFFFF"/>
		</linearGradient>
		
			<rect x="804.51" y="2003.5" style="fill-rule:evenodd;clip-rule:evenodd;fill:url(#SVGID_00000081623415068508178480000002021477362868139427_);" width="540.29" height="178.37"/>
	</mask>
	<path style="fill-rule:evenodd;clip-rule:evenodd;fill:#66FFCC;" d="M1184.51,2014.58c-57.43-7.38-115.09-12.3-172.21-8.99
		c-44.91,2.61-89.48,10.31-133.33,25.89c-55.01,86.43-73.42,149.35-73.42,149.35c50.32-48.86,105.98-79.79,164.64-99.75
		c67.53-22.98,139.03-31.43,210.94-35.94c54.5-3.43,109.23-4.6,162.63-8.14C1291.3,2030.49,1238.01,2021.46,1184.51,2014.58
		L1184.51,2014.58z"/>
	<defs>
		
			<filter id="Adobe_OpacityMaskFilter_00000174593915998780015270000008842022971944024755_" filterUnits="userSpaceOnUse" x="1347.54" y="1431.655" width="657.87" height="184.095">
			<feColorMatrix  type="matrix" values="1 0 0 0 0  0 1 0 0 0  0 0 1 0 0  0 0 0 1 0"/>
		</filter>
	</defs>
	<mask maskUnits="userSpaceOnUse" x="1347.54" y="1431.655" width="657.87" height="184.095" id="id8_1_">
		<defs>
			
				<filter id="Adobe_OpacityMaskFilter_00000032637321523035191990000013057434083145456060_" filterUnits="userSpaceOnUse" x="1346.5" y="1430.61" width="659.95" height="186.18">
				<feFlood  style="flood-color:white;flood-opacity:1" result="back"/>
				<feBlend  in="SourceGraphic" in2="back" mode="normal"/>
			</filter>
		</defs>
		
			<mask maskUnits="userSpaceOnUse" x="1346.5" y="1430.61" width="659.95" height="186.18" id="id8_1_" style="filter:url(#Adobe_OpacityMaskFilter_00000174593915998780015270000008842022971944024755_);">
			<g style="filter:url(#Adobe_OpacityMaskFilter_00000032637321523035191990000013057434083145456060_);">
				<defs>
					
						<filter id="Adobe_OpacityMaskFilter_00000057842636215171641590000002215107626247081125_" filterUnits="userSpaceOnUse" x="1346.5" y="1430.61" width="659.95" height="186.18">
						<feFlood  style="flood-color:white;flood-opacity:1" result="back"/>
						<feBlend  in="SourceGraphic" in2="back" mode="normal"/>
					</filter>
				</defs>
				<mask maskUnits="userSpaceOnUse" x="1346.5" y="1430.61" width="659.95" height="186.18" id="id8_1_">
					<g style="filter:url(#Adobe_OpacityMaskFilter_00000057842636215171641590000002215107626247081125_);">
					</g>
				</mask>
				
					<linearGradient id="SVGID_00000108306443255920565840000009794951920608361663_" gradientUnits="userSpaceOnUse" x1="1987.6382" y1="2730.3074" x2="1468.6298" y2="2309.9685" gradientTransform="matrix(1 0 0 -1 0 4002)">
					<stop  offset="0" style="stop-color:#FFFFFF"/>
					<stop  offset="1" style="stop-color:#000000"/>
				</linearGradient>
				
					<rect x="1346.5" y="1430.61" style="mask:url(#id8_1_);fill-rule:evenodd;clip-rule:evenodd;fill:url(#SVGID_00000108306443255920565840000009794951920608361663_);" width="659.95" height="186.18"/>
			</g>
		</mask>
		
			<linearGradient id="SVGID_00000033334497948803920930000008124122085801906601_" gradientUnits="userSpaceOnUse" x1="1987.6382" y1="2730.3074" x2="1468.6298" y2="2309.9685" gradientTransform="matrix(1 0 0 -1 0 4002)">
			<stop  offset="0" style="stop-color:#FFFFFF"/>
			<stop  offset="1" style="stop-color:#FFFFFF"/>
		</linearGradient>
		
			<rect x="1346.5" y="1430.61" style="fill-rule:evenodd;clip-rule:evenodd;fill:url(#SVGID_00000033334497948803920930000008124122085801906601_);" width="659.95" height="186.18"/>
	</mask>
	<path style="fill-rule:evenodd;clip-rule:evenodd;fill:#FFFF00;" d="M1701.69,1511.6c94.93-69.21,180.78-41.34,303.72,104.15
		c0,0-151.91-314.99-352.79-120.92c-75.55,72.99-185.17,106.48-305.08,115.36c37.65,2.23,75.82,2.44,114.94-2.02
		c20.48-2.33,41.21-5.94,62.26-11.22C1581.06,1582.84,1639.66,1556.83,1701.69,1511.6z"/>
</g>
<g style="enable-background:new    ;">
	<g>
		<text transform="matrix(1 0 0 1 1823.67 2024.8199)" style="font-family:'Poppins-ExtraBold'; font-size:218.13px;">ELEGANTBIRD</text>
	</g>
</g>
<g style="enable-background:new    ;">
	<g>
		<text transform="matrix(1 0 0 1 1831.28 2130.0801)"><tspan x="0" y="0" style="font-family:'Poppins-ExtraBold'; font-size:82.22px; letter-spacing:57;">ELEGANTBIR</tspan><tspan x="1002.091" y="0" style="font-family:'Poppins-ExtraBold'; font-size:82.22px;">D</tspan></text>
	</g>
</g>
</svg>
