<?xml version="1.0" encoding="utf-8"?>
<!-- Generator: Adobe Illustrator 27.5.0, SVG Export Plug-In . SVG Version: 6.00 Build 0)  -->
<svg version="1.1" xmlns="http://www.w3.org/2000/svg" xmlns:xlink="http://www.w3.org/1999/xlink" x="0px" y="0px"
	 viewBox="0 0 500 500" style="enable-background:new 0 0 500 500;" xml:space="preserve">
<g id="BACKGROUND">
	<rect style="fill:#FFFFFF;" width="500" height="500"/>
</g>
<g id="OBJECTS">
	<g>
		<linearGradient id="SVGID_1_" gradientUnits="userSpaceOnUse" x1="71.6284" y1="249.3155" x2="209.9813" y2="249.3155">
			<stop  offset="0" style="stop-color:#EB2B1D"/>
			<stop  offset="1" style="stop-color:#F5AA2A"/>
		</linearGradient>
		<path style="fill:url(#SVGID_1_);" d="M208.508,230.618l-37.934,29.252l-0.231,0.178l17.657,51.551
			c1.179,3.448-2.735,6.392-5.716,4.307l-41.622-29.09l-18.102,12.585l-2.625,1.834l-21.078,14.66
			c-2.992,2.08-6.9-0.885-5.706-4.328l2.369-6.804l11.677-33.534c10.578,7.178,15.498,11.893,33.25,12.391
			c1.834,0.052,3.573-0.058,5.213-0.32c9.829-1.535,15.991-8.367,15.991-17.772c0-9.268-7.933-15.718-20.167-15.718h-0.037
			c-2.557,0-4.632-2.075-4.632-4.632v-3.227h11.49c0.561,0,1.111-0.042,1.65-0.126c0.021,0,0.042,0,0.058-0.005
			c0.005,0,0.005,0,0.01-0.005c5.239-0.823,9.253-5.365,9.253-10.835h-35.382c0,0.136,0.005,0.267,0.01,0.398
			c0.026,0.875,0.058,1.739,0.084,2.599c0.031,0.938,0.058,1.865,0.089,2.772c0.058,1.855,0.115,3.626,0.168,5.281
			c0.01,0.377,0.026,0.749,0.037,1.116c0.026,0.786,0.052,1.535,0.073,2.253v5.627c0,0.744,0.084,1.462,0.252,2.153
			c0.98,4.171,4.747,7.251,9.216,7.199c2.122-0.026,4.019-0.037,5.067-0.037c5.187,0,8.152,2.221,8.152,6.151
			c0,4.228-2.965,6.706-8.226,6.596c-10.175-0.215-17.762-5.753-30.017-14.833c-2.536-1.876-23.53-18.181-35.712-27.649
			c-2.829-2.195-1.273-6.733,2.316-6.733h48.287l13.691-39.317c1.174-3.379,5.957-3.369,7.115,0.016l13.46,39.301h48.255
			C209.802,223.875,211.353,228.428,208.508,230.618z"/>
		
			<linearGradient id="SVGID_00000139270080407216689710000006930945668918100643_" gradientUnits="userSpaceOnUse" x1="152.7607" y1="303.0844" x2="84.0668" y2="306.0874">
			<stop  offset="0" style="stop-color:#EB2B1D"/>
			<stop  offset="1" style="stop-color:#F5AA2A"/>
		</linearGradient>
		<path style="fill:url(#SVGID_00000139270080407216689710000006930945668918100643_);" d="M89.188,322.66l51.474-35.844
			c0,0-23.841,16.602-42.141,9.329L89.188,322.66z"/>
		
			<linearGradient id="SVGID_00000178927346188684150770000005573190457350750898_" gradientUnits="userSpaceOnUse" x1="204.1353" y1="266.3404" x2="144.4508" y2="332.4064">
			<stop  offset="0" style="stop-color:#EB2B1D"/>
			<stop  offset="0.0747" style="stop-color:#EC341E"/>
			<stop  offset="1" style="stop-color:#F5AA2A"/>
		</linearGradient>
		<path style="fill:url(#SVGID_00000178927346188684150770000005573190457350750898_);" d="M161.267,301.217l30.526,21.381
			l-21.176-61.751C170.617,260.847,180.514,289.709,161.267,301.217z"/>
		
			<linearGradient id="SVGID_00000066476689062053142820000015933978525640456092_" gradientUnits="userSpaceOnUse" x1="226.3483" y1="237.1474" x2="170.0419" y2="222.1324">
			<stop  offset="0" style="stop-color:#EB2B1D"/>
			<stop  offset="1" style="stop-color:#F5AA2A"/>
		</linearGradient>
		<path style="fill:url(#SVGID_00000066476689062053142820000015933978525640456092_);" d="M157.957,223.875h59.301l-20.913,16.12
			C191.793,223.697,157.957,223.875,157.957,223.875z"/>
		
			<linearGradient id="SVGID_00000062160034961705118760000014080998374435382965_" gradientUnits="userSpaceOnUse" x1="161.4555" y1="165.2045" x2="134.0531" y2="205.6198">
			<stop  offset="0" style="stop-color:#EB2B1D"/>
			<stop  offset="1" style="stop-color:#F5AA2A"/>
		</linearGradient>
		<path style="fill:url(#SVGID_00000062160034961705118760000014080998374435382965_);" d="M150.572,202.31l-9.767-27.702
			l-17.113,49.266C123.692,223.875,132.885,197.407,150.572,202.31z"/>
		
			<linearGradient id="SVGID_00000130626057524442117590000011820992038180702613_" gradientUnits="userSpaceOnUse" x1="42.2932" y1="273.5707" x2="102.1029" y2="230.2775">
			<stop  offset="0" style="stop-color:#EB2B1D"/>
			<stop  offset="1" style="stop-color:#F5AA2A"/>
		</linearGradient>
		<path style="fill:url(#SVGID_00000130626057524442117590000011820992038180702613_);" d="M91.445,223.875H64.48l44.886,34.781
			C109.366,258.656,84.257,239.2,91.445,223.875z"/>
	</g>
</g>
<g id="TEXTS">
	<g>
		<text transform="matrix(1 0 0 1 207.8503 320.0499)" style="font-family:'OpenSans'; font-size:19.7116px; letter-spacing:7;">tagline here</text>
		<g>
			
				<linearGradient id="SVGID_00000041253783100369417430000017281884650919514038_" gradientUnits="userSpaceOnUse" x1="317.2368" y1="302.8729" x2="317.2368" y2="321.9828">
				<stop  offset="0" style="stop-color:#31004A"/>
				<stop  offset="1" style="stop-color:#7000A3"/>
			</linearGradient>
			<path style="fill:url(#SVGID_00000041253783100369417430000017281884650919514038_);" d="M214.116,320.05h-1.636v-12.618h-4.457
				v-1.453h10.549v1.453h-4.456V320.05z"/>
			
				<linearGradient id="SVGID_00000124142055335842781500000014619815688988909457_" gradientUnits="userSpaceOnUse" x1="317.2368" y1="302.8729" x2="317.2368" y2="321.9828">
				<stop  offset="0" style="stop-color:#31004A"/>
				<stop  offset="1" style="stop-color:#7000A3"/>
			</linearGradient>
			<path style="fill:url(#SVGID_00000124142055335842781500000014619815688988909457_);" d="M237.419,320.05l-1.751-4.476h-5.641
				l-1.732,4.476h-1.655l5.563-14.129h1.376l5.534,14.129H237.419z M235.157,314.102l-1.636-4.36
				c-0.212-0.552-0.43-1.229-0.654-2.03c-0.142,0.616-0.344,1.293-0.606,2.03l-1.655,4.36H235.157z"/>
			
				<linearGradient id="SVGID_00000105391578126047644020000001787292706425868945_" gradientUnits="userSpaceOnUse" x1="317.2368" y1="302.8729" x2="317.2368" y2="321.9828">
				<stop  offset="0" style="stop-color:#31004A"/>
				<stop  offset="1" style="stop-color:#7000A3"/>
			</linearGradient>
			<path style="fill:url(#SVGID_00000105391578126047644020000001787292706425868945_);" d="M255.121,312.677h4.784v6.844
				c-0.745,0.237-1.502,0.417-2.271,0.539c-0.771,0.122-1.662,0.183-2.676,0.183c-2.131,0-3.789-0.634-4.977-1.9
				c-1.187-1.268-1.78-3.043-1.78-5.328c0-1.463,0.294-2.744,0.881-3.845s1.433-1.94,2.536-2.521s2.396-0.871,3.879-0.871
				c1.501,0,2.899,0.275,4.196,0.827l-0.636,1.444c-1.271-0.539-2.492-0.809-3.667-0.809c-1.713,0-3.051,0.51-4.014,1.53
				c-0.962,1.021-1.443,2.436-1.443,4.244c0,1.899,0.464,3.34,1.391,4.322c0.928,0.981,2.289,1.473,4.086,1.473
				c0.976,0,1.928-0.112,2.858-0.337v-4.331h-3.147V312.677z"/>
			
				<linearGradient id="SVGID_00000134212495548053634610000010280250672800480409_" gradientUnits="userSpaceOnUse" x1="317.2368" y1="302.8729" x2="317.2368" y2="321.9828">
				<stop  offset="0" style="stop-color:#31004A"/>
				<stop  offset="1" style="stop-color:#7000A3"/>
			</linearGradient>
			<path style="fill:url(#SVGID_00000134212495548053634610000010280250672800480409_);" d="M271.168,320.05v-14.071h1.636v12.589
				h6.208v1.482H271.168z"/>
			
				<linearGradient id="SVGID_00000109027756909113913610000018332358637953228717_" gradientUnits="userSpaceOnUse" x1="317.2368" y1="302.8729" x2="317.2368" y2="321.9828">
				<stop  offset="0" style="stop-color:#31004A"/>
				<stop  offset="1" style="stop-color:#7000A3"/>
			</linearGradient>
			<path style="fill:url(#SVGID_00000109027756909113913610000018332358637953228717_);" d="M289.284,320.05v-14.071h1.636v14.071
				H289.284z"/>
			
				<linearGradient id="SVGID_00000101068987919459889790000003027919722279913919_" gradientUnits="userSpaceOnUse" x1="317.2368" y1="302.8729" x2="317.2368" y2="321.9828">
				<stop  offset="0" style="stop-color:#31004A"/>
				<stop  offset="1" style="stop-color:#7000A3"/>
			</linearGradient>
			<path style="fill:url(#SVGID_00000101068987919459889790000003027919722279913919_);" d="M313.655,320.05h-1.867l-7.689-11.81
				h-0.077c0.103,1.386,0.153,2.656,0.153,3.812v7.998h-1.511v-14.071h1.848l7.671,11.762h0.077c-0.013-0.174-0.042-0.73-0.086-1.67
				c-0.046-0.94-0.062-1.612-0.049-2.017v-8.075h1.53V320.05z"/>
			
				<linearGradient id="SVGID_00000003089055588458858970000016747223102315256492_" gradientUnits="userSpaceOnUse" x1="317.2368" y1="302.8729" x2="317.2368" y2="321.9828">
				<stop  offset="0" style="stop-color:#31004A"/>
				<stop  offset="1" style="stop-color:#7000A3"/>
			</linearGradient>
			<path style="fill:url(#SVGID_00000003089055588458858970000016747223102315256492_);" d="M333.253,320.05h-7.844v-14.071h7.844
				v1.453h-6.208v4.533h5.833v1.444h-5.833v5.178h6.208V320.05z"/>
			
				<linearGradient id="SVGID_00000181808465243479818110000018423526569019145894_" gradientUnits="userSpaceOnUse" x1="317.2368" y1="302.8729" x2="317.2368" y2="321.9828">
				<stop  offset="0" style="stop-color:#31004A"/>
				<stop  offset="1" style="stop-color:#7000A3"/>
			</linearGradient>
			<path style="fill:url(#SVGID_00000181808465243479818110000018423526569019145894_);" d="M367.945,320.05h-1.637v-6.622h-7.411
				v6.622h-1.636v-14.071h1.636v5.986h7.411v-5.986h1.637V320.05z"/>
			
				<linearGradient id="SVGID_00000040574976067891350450000004410520016555156610_" gradientUnits="userSpaceOnUse" x1="317.2368" y1="302.8729" x2="317.2368" y2="321.9828">
				<stop  offset="0" style="stop-color:#31004A"/>
				<stop  offset="1" style="stop-color:#7000A3"/>
			</linearGradient>
			<path style="fill:url(#SVGID_00000040574976067891350450000004410520016555156610_);" d="M387.533,320.05h-7.844v-14.071h7.844
				v1.453h-6.208v4.533h5.833v1.444h-5.833v5.178h6.208V320.05z"/>
			
				<linearGradient id="SVGID_00000103947191073070568710000014786087228770277267_" gradientUnits="userSpaceOnUse" x1="317.2368" y1="302.8729" x2="317.2368" y2="321.9828">
				<stop  offset="0" style="stop-color:#31004A"/>
				<stop  offset="1" style="stop-color:#7000A3"/>
			</linearGradient>
			<path style="fill:url(#SVGID_00000103947191073070568710000014786087228770277267_);" d="M400.173,314.198v5.852h-1.636v-14.071
				h3.859c1.727,0,3.001,0.33,3.826,0.991c0.824,0.661,1.236,1.655,1.236,2.983c0,1.861-0.943,3.119-2.829,3.773l3.82,6.323h-1.935
				l-3.406-5.852H400.173z M400.173,312.793h2.243c1.155,0,2.002-0.229,2.541-0.688s0.809-1.146,0.809-2.064
				c0-0.931-0.274-1.601-0.823-2.012c-0.549-0.41-1.43-0.616-2.642-0.616h-2.128V312.793z"/>
			
				<linearGradient id="SVGID_00000005230520018253894970000011453429575968037272_" gradientUnits="userSpaceOnUse" x1="317.2368" y1="302.8729" x2="317.2368" y2="321.9828">
				<stop  offset="0" style="stop-color:#31004A"/>
				<stop  offset="1" style="stop-color:#7000A3"/>
			</linearGradient>
			<path style="fill:url(#SVGID_00000005230520018253894970000011453429575968037272_);" d="M426.45,320.05h-7.844v-14.071h7.844
				v1.453h-6.208v4.533h5.833v1.444h-5.833v5.178h6.208V320.05z"/>
		</g>
	</g>
	<g>
		
			<text transform="matrix(1 0 0 1 207.8503 289.4269)" style="font-family:'OpenSans-ExtraboldItalic'; font-size:80.55px; letter-spacing:-4;">Stars</text>
		<g>
			
				<linearGradient id="SVGID_00000137823956532757016870000013055640688051225518_" gradientUnits="userSpaceOnUse" x1="164.6582" y1="323.2768" x2="429.9731" y2="208.7467">
				<stop  offset="0" style="stop-color:#31004A"/>
				<stop  offset="1" style="stop-color:#7000A3"/>
			</linearGradient>
			<path style="fill:url(#SVGID_00000137823956532757016870000013055640688051225518_);" d="M213.006,280.889
				c3.142,1.933,7.732,3.544,12.566,3.544c7.169,0,11.357-3.786,11.357-9.264c0-5.074-2.9-7.974-10.23-10.793
				c-8.86-3.142-14.338-7.733-14.338-15.386c0-8.458,7.008-14.741,17.561-14.741c5.558,0,9.585,1.289,12.002,2.658l-1.934,5.719
				c-1.771-0.966-5.396-2.578-10.311-2.578c-7.41,0-10.229,4.43-10.229,8.136c0,5.075,3.303,7.572,10.794,10.472
				c9.183,3.545,13.854,7.975,13.854,15.949c0,8.377-6.202,15.627-19.01,15.627c-5.236,0-10.955-1.53-13.855-3.464L213.006,280.889z
				"/>
			
				<linearGradient id="SVGID_00000006707663406245213660000017730117404710209453_" gradientUnits="userSpaceOnUse" x1="164.6582" y1="323.2768" x2="429.9731" y2="208.7467">
				<stop  offset="0" style="stop-color:#31004A"/>
				<stop  offset="1" style="stop-color:#7000A3"/>
			</linearGradient>
			<path style="fill:url(#SVGID_00000006707663406245213660000017730117404710209453_);" d="M259.967,241.096h-16.513v-5.961h40.194
				v5.961h-16.594v48.331h-7.088V241.096z"/>
			
				<linearGradient id="SVGID_00000011746398462538102020000001164584804949022639_" gradientUnits="userSpaceOnUse" x1="164.6582" y1="323.2768" x2="429.9731" y2="208.7467">
				<stop  offset="0" style="stop-color:#31004A"/>
				<stop  offset="1" style="stop-color:#7000A3"/>
			</linearGradient>
			<path style="fill:url(#SVGID_00000011746398462538102020000001164584804949022639_);" d="M294.441,272.35l-5.639,17.077h-7.25
				l18.446-54.292h8.458l18.526,54.292h-7.491l-5.8-17.077H294.441z M312.243,266.873l-5.316-15.627
				c-1.209-3.545-2.014-6.767-2.819-9.908h-0.161c-0.806,3.222-1.691,6.524-2.739,9.827l-5.316,15.708H312.243z"/>
			
				<linearGradient id="SVGID_00000014632017163587460330000005942070226242313857_" gradientUnits="userSpaceOnUse" x1="164.6582" y1="323.2768" x2="429.9731" y2="208.7467">
				<stop  offset="0" style="stop-color:#31004A"/>
				<stop  offset="1" style="stop-color:#7000A3"/>
			</linearGradient>
			<path style="fill:url(#SVGID_00000014632017163587460330000005942070226242313857_);" d="M330.931,235.86
				c3.544-0.725,8.619-1.128,13.452-1.128c7.491,0,12.324,1.37,15.707,4.431c2.739,2.417,4.27,6.122,4.27,10.311
				c0,7.169-4.511,11.922-10.23,13.854v0.242c4.189,1.449,6.687,5.316,7.975,10.954c1.772,7.572,3.062,12.808,4.188,14.902h-7.249
				c-0.886-1.53-2.095-6.202-3.625-12.969c-1.611-7.491-4.511-10.311-10.874-10.552h-6.605v23.521h-7.008V235.86z M337.938,260.59
				h7.169c7.491,0,12.244-4.108,12.244-10.311c0-7.008-5.075-10.069-12.485-10.149c-3.384,0-5.8,0.322-6.928,0.645V260.59z"/>
			
				<linearGradient id="SVGID_00000093859334775221651220000011301894868949064066_" gradientUnits="userSpaceOnUse" x1="164.6582" y1="323.2768" x2="429.9731" y2="208.7467">
				<stop  offset="0" style="stop-color:#31004A"/>
				<stop  offset="1" style="stop-color:#7000A3"/>
			</linearGradient>
			<path style="fill:url(#SVGID_00000093859334775221651220000011301894868949064066_);" d="M369.271,280.889
				c3.142,1.933,7.732,3.544,12.566,3.544c7.169,0,11.357-3.786,11.357-9.264c0-5.074-2.9-7.974-10.23-10.793
				c-8.86-3.142-14.338-7.733-14.338-15.386c0-8.458,7.008-14.741,17.561-14.741c5.558,0,9.585,1.289,12.002,2.658l-1.934,5.719
				c-1.771-0.966-5.396-2.578-10.311-2.578c-7.41,0-10.229,4.43-10.229,8.136c0,5.075,3.303,7.572,10.794,10.472
				c9.183,3.545,13.854,7.975,13.854,15.949c0,8.377-6.202,15.627-19.01,15.627c-5.236,0-10.955-1.53-13.855-3.464L369.271,280.889z
				"/>
		</g>
	</g>
</g>
</svg>
