<svg width="59" height="59" viewBox="0 0 59 59" fill="none" xmlns="http://www.w3.org/2000/svg">
<path d="M54.083 36.875L39.333 22.125M54.083 22.125L39.333 36.875" stroke="white" stroke-width="2" stroke-linecap="round"/>
<path d="M4.9165 36.7742V22.2233C4.9165 20.8122 6.01784 19.6667 7.37484 19.6667H16.1904C16.5157 19.6655 16.8375 19.5985 17.1362 19.4696C17.4349 19.3407 17.7044 19.1527 17.9285 18.9169L25.3035 10.588C26.8522 8.97537 29.4998 10.1185 29.4998 12.3974V46.6026C29.4998 48.8987 26.8203 50.032 25.2813 48.3874L17.9309 40.1052C17.7062 39.8627 17.434 39.669 17.1311 39.5362C16.8283 39.4034 16.5014 39.3343 16.1708 39.3333H7.37484C6.01784 39.3333 4.9165 38.1877 4.9165 36.7742Z" stroke="white" stroke-width="2" stroke-linecap="round" stroke-linejoin="round"/>
</svg>
