<svg width="96" height="96" viewBox="0 0 96 96" fill="none" xmlns="http://www.w3.org/2000/svg">
<g clip-path="url(#clip0_1_574)">
<g filter="url(#filter0_d_1_574)">
<path d="M56.0748 25.4712C73.659 25.4712 87.9138 39.726 87.9138 57.3102C87.9138 74.8944 73.659 89.1492 56.0748 89.1492C38.4906 89.1492 24.2358 74.8944 24.2358 57.3102C24.2358 39.726 38.4906 25.4712 56.0748 25.4712ZM59.2165 43.6409L45.6456 57.2119L59.2165 70.7828L62.7107 67.2661L52.6565 57.2119L62.7107 47.1576L59.2165 43.6409Z" fill="black"/>
</g>
<path d="M56.0748 25.4712C73.659 25.4712 87.9138 39.726 87.9138 57.3102C87.9138 74.8944 73.659 89.1492 56.0748 89.1492C38.4906 89.1492 24.2358 74.8944 24.2358 57.3102C24.2358 39.726 38.4906 25.4712 56.0748 25.4712ZM59.2165 43.6409L45.6456 57.2119L59.2165 70.7828L62.7107 67.2661L52.6565 57.2119L62.7107 47.1576L59.2165 43.6409Z" fill="#E5E5E5"/>
</g>
<defs>
<filter id="filter0_d_1_574" x="24.2358" y="25.4712" width="63.6782" height="63.678" filterUnits="userSpaceOnUse" color-interpolation-filters="sRGB">
<feFlood flood-opacity="0" result="BackgroundImageFix"/>
<feColorMatrix in="SourceAlpha" type="matrix" values="0 0 0 0 0 0 0 0 0 0 0 0 0 0 0 0 0 0 127 0" result="hardAlpha"/>
<feOffset/>
<feColorMatrix type="matrix" values="0 0 0 0 0 0 0 0 0 0 0 0 0 0 0 0 0 0 0.25 0"/>
<feBlend mode="normal" in2="BackgroundImageFix" result="effect1_dropShadow_1_574"/>
<feBlend mode="normal" in="SourceGraphic" in2="effect1_dropShadow_1_574" result="shape"/>
</filter>
<clipPath id="clip0_1_574">
<rect width="95.517" height="95.517" fill="white" transform="translate(0.0380859)"/>
</clipPath>
</defs>
</svg>
