<svg width="44" height="43" viewBox="0 0 44 43" fill="none" xmlns="http://www.w3.org/2000/svg">
<circle cx="21.8078" cy="21.4701" r="21.2052" fill="white"/>
<path d="M16.5772 18.0084H12.8022V30.0915H16.5772V18.0084Z" fill="black"/>
<path d="M26.789 17.7463C26.6499 17.7289 26.502 17.7201 26.3541 17.7114C24.2405 17.6241 23.0489 18.8813 22.6314 19.4226C22.5183 19.571 22.4661 19.6583 22.4661 19.6583V18.0432H18.8564V30.1263H22.4661H22.6314C22.6314 28.8953 22.6314 27.673 22.6314 26.442C22.6314 25.7785 22.6314 25.1149 22.6314 24.4514C22.6314 23.6307 22.5705 22.7577 22.9793 22.0069C23.3272 21.3783 23.9535 21.064 24.658 21.064C26.7455 21.064 26.789 22.9585 26.789 23.1331C26.789 23.1418 26.789 23.1506 26.789 23.1506V30.1787H30.564V22.295C30.564 19.5972 29.1984 18.0083 26.789 17.7463Z" fill="black"/>
<path d="M14.6895 16.4457C15.9 16.4457 16.8814 15.4607 16.8814 14.2456C16.8814 13.0305 15.9 12.0455 14.6895 12.0455C13.4789 12.0455 12.4976 13.0305 12.4976 14.2456C12.4976 15.4607 13.4789 16.4457 14.6895 16.4457Z" fill="black"/>
</svg>
