<svg width="44" height="44" viewBox="0 0 44 44" fill="none" xmlns="http://www.w3.org/2000/svg">
<ellipse cx="21.8078" cy="21.7139" rx="21.2052" ry="21.647" fill="white"/>
<path d="M11.2715 28.1632C13.4192 28.2859 15.2973 27.7763 17.1289 26.427C15.2787 26.1062 13.9957 25.2475 13.2983 23.4735C13.8376 23.3981 14.3118 23.5396 14.8696 23.3131C13.0473 22.5016 11.8665 21.2844 11.82 19.1802C12.3965 19.2274 12.8335 19.6142 13.5215 19.5576C11.8479 17.8969 11.3366 16.0852 12.3872 13.8866C14.1351 15.9248 16.1806 17.3119 18.6816 17.963C18.8211 18.0007 18.9512 18.0385 19.0907 18.0668C19.7322 18.2177 20.4946 18.5386 20.8851 18.4914C21.5545 18.4065 20.8851 17.6233 21.0525 16.6042C21.5824 13.4337 25.0225 11.99 27.57 13.8489C28.3138 14.3962 28.8996 14.3867 29.6341 14.0565C30.0153 13.8866 30.4058 13.7168 30.8614 13.5186C30.7591 14.4245 30.0711 14.9246 29.5225 15.5945C30.1454 15.7361 30.6475 15.5568 31.2239 15.3681C31.0287 16.0192 30.5452 16.3872 30.1082 16.7457C29.6527 17.1137 29.476 17.5006 29.4574 18.1045C29.1785 27.2479 18.9419 34.3154 11.9409 28.6916C11.2622 28.1443 11.9223 28.6916 11.2715 28.1632Z" fill="black"/>
</svg>
