<svg width="44" height="45" viewBox="0 0 44 45" fill="none" xmlns="http://www.w3.org/2000/svg">
<ellipse cx="21.8078" cy="22.516" rx="21.2052" ry="21.647" fill="white"/>
<path d="M27.7625 30.9366H16.415C14.847 30.9366 13.5659 29.6507 13.5659 28.0768V16.6868C13.5659 15.1129 14.847 13.827 16.415 13.827H27.7625C29.3306 13.827 30.6117 15.1129 30.6117 16.6868V28.0768C30.6117 29.6578 29.3376 30.9366 27.7625 30.9366Z" fill="black"/>
<path d="M22.092 26.7781C20.9229 26.7781 19.8239 26.3213 18.9979 25.4922C18.1718 24.6631 17.7168 23.5599 17.7168 22.3865C17.7168 21.2131 18.1718 20.1099 18.9979 19.2808C19.8239 18.4517 20.9229 17.9949 22.092 17.9949C23.261 17.9949 24.3601 18.4517 25.1861 19.2808C26.0122 20.1099 26.4672 21.2131 26.4672 22.3865C26.4672 23.5599 26.0122 24.6631 25.1861 25.4922C24.3531 26.3213 23.261 26.7781 22.092 26.7781ZM22.092 18.9295C20.1949 18.9295 18.6478 20.4753 18.6478 22.3865C18.6478 24.2907 20.1879 25.8435 22.092 25.8435C23.9891 25.8435 25.5361 24.2977 25.5361 22.3865C25.5291 20.4823 23.9891 18.9295 22.092 18.9295Z" fill="white"/>
<path d="M27.3196 17.8485C27.7833 17.8485 28.1592 17.4712 28.1592 17.0058C28.1592 16.5403 27.7833 16.163 27.3196 16.163C26.8559 16.163 26.48 16.5403 26.48 17.0058C26.48 17.4712 26.8559 17.8485 27.3196 17.8485Z" fill="white"/>
</svg>
