<svg width="364" height="95" viewBox="0 0 364 95" fill="none" xmlns="http://www.w3.org/2000/svg">
<g clip-path="url(#clip0_1_449)">
<path d="M266.533 95.2052C177.699 95.2052 88.9666 95.2052 0.219727 95.2052C0.219727 63.552 0.219727 31.8987 0.219727 0.225357C121.4 0.225357 242.595 0.225357 363.785 0.225357C363.785 31.8863 363.785 63.5458 363.785 95.2052C331.398 95.2052 299.017 95.2052 266.533 95.2052ZM186.913 52.4768C184.548 58.9874 182.182 65.498 179.773 72.1291C182.182 72.1291 184.429 72.1496 186.675 72.1006C186.927 72.0951 187.309 71.7417 187.396 71.4733C189.479 65.1001 191.529 58.7165 193.764 52.3072C195.46 52.3122 197.156 52.3173 198.854 52.5092C198.404 59.0073 197.955 65.5053 197.501 72.0699C199.905 72.0699 202.21 72.0699 204.597 72.0699C204.726 69.789 204.852 67.5447 204.979 65.3003C205.223 60.9725 205.468 56.6447 205.915 52.2952C207.502 52.2952 209.09 52.2952 210.706 52.2952C211.184 50.0103 211.639 47.8384 212.12 45.5423C209.982 45.5423 208.011 45.5423 206.045 45.3734C206.415 38.9051 206.785 32.4369 207.158 25.9082C203.592 25.9082 200.118 25.9082 196.58 25.9082C194.2 32.4382 191.811 38.9943 189.226 45.5768C188.165 45.5785 187.105 45.6069 186.046 45.5717C185.446 45.5517 185.129 45.6678 185.025 46.3616C184.839 47.6082 184.511 48.8336 184.251 50.0695C184.101 50.7803 183.966 51.4943 183.801 52.3261C184.957 52.3261 185.945 52.3261 186.913 52.4768ZM281.652 52.4639C279.132 57.263 276.53 62.0218 274.138 66.8842C273.367 68.4524 273.149 70.293 272.659 72.0782C279.444 72.0782 285.991 72.0782 292.58 72.0782C293.316 69.9465 294.041 67.8496 294.816 65.6046C290.666 65.6046 286.729 65.6046 282.719 65.6046C285.034 61.1099 287.295 56.7201 289.742 52.3106C292.094 52.3039 294.451 52.2076 296.796 52.3256C298.117 52.392 298.845 51.9905 299.315 50.7558C299.724 49.6823 300.365 48.6976 300.893 47.6688C301.227 47.0191 301.544 46.3604 301.946 45.5479C298.896 45.5479 296.04 45.5479 293.21 45.4042C295.409 41.1713 297.721 36.9921 299.756 32.6823C300.75 30.5775 301.229 28.2293 301.963 25.9223C295.244 25.9223 288.837 25.9223 282.424 25.9223C281.962 28.07 281.514 30.1518 281.038 32.3649C284.8 32.3649 288.399 32.3649 292.161 32.3649C289.822 36.8563 287.562 41.1983 285.124 45.5674C280.092 45.56 275.061 45.5527 270.063 45.4065C272.188 41.3272 274.234 37.2037 276.469 33.1855C277.747 30.8876 277.958 28.3641 278.66 25.8847C272.152 25.8847 265.77 25.8847 259.313 25.8847C258.85 28.0153 258.391 30.1305 257.904 32.3722C261.659 32.3722 265.289 32.3722 269.043 32.3722C268.851 32.7391 268.726 32.9755 268.603 33.2127C266.467 37.3231 264.331 41.4337 262.007 45.5647C257.578 45.5573 253.148 45.55 248.729 45.374C249.097 38.8859 249.466 32.3979 249.837 25.8773C246.232 25.8773 242.786 25.8773 239.255 25.8773C236.885 32.424 234.512 38.9806 231.965 45.5717C230.126 45.5752 228.286 45.56 226.447 45.6008C226.145 45.6075 225.629 45.8071 225.581 46.0057C225.094 48.0493 224.683 50.1111 224.218 52.3261C226.088 52.3261 227.849 52.3261 229.592 52.4767C227.227 58.9898 224.862 65.5028 222.455 72.1306C224.285 72.1306 225.953 72.1308 227.62 72.1306C229.878 72.1304 229.893 72.135 230.576 70.0184C232.479 64.1261 234.369 58.2295 236.443 52.3072C238.138 52.3122 239.834 52.3173 241.531 52.5092C241.084 59.0079 240.636 65.5065 240.183 72.0708C242.585 72.0708 244.89 72.0708 247.277 72.0708C247.406 69.7872 247.531 67.5429 247.658 65.2988C247.902 60.9714 248.146 56.6441 248.593 52.2953C251.907 52.3055 255.222 52.3157 258.509 52.4673C255.994 57.2647 253.398 62.022 251.012 66.8825C250.242 68.4505 250.026 70.29 249.522 72.1301C256.171 72.1301 262.556 72.1338 268.94 72.1137C269.15 72.1131 269.485 71.9165 269.551 71.7346C270.274 69.743 270.956 67.7362 271.697 65.5933C267.569 65.5933 263.606 65.5933 259.587 65.5933C261.91 61.1039 264.179 56.7185 266.623 52.3031C271.646 52.3121 276.669 52.3212 281.652 52.4639ZM71.7982 52.2964C74.4744 52.3062 77.1505 52.316 79.8075 52.4765C77.4424 58.9891 75.0773 65.5018 72.6703 72.1297C75.0808 72.1297 77.3288 72.1501 79.5753 72.1009C79.8254 72.0954 80.2039 71.7381 80.292 71.4685C82.3744 65.0965 84.4252 58.7141 86.6598 52.3062C88.3553 52.3118 90.0507 52.3174 91.7476 52.5098C91.2992 59.0085 90.8509 65.5071 90.398 72.0713C92.8002 72.0713 95.105 72.0713 97.487 72.0713C97.6068 70.0266 97.7279 68.0215 97.8412 66.016C98.0991 61.4494 98.3531 56.8826 98.8106 52.2944C102.125 52.3047 105.44 52.3151 108.726 52.467C106.209 57.2703 103.611 62.0335 101.223 66.9C100.455 68.4633 100.243 70.2988 99.7442 72.1295C106.39 72.1295 112.748 72.1342 119.105 72.1111C119.339 72.1102 119.71 71.8888 119.785 71.6848C120.509 69.7115 121.183 67.72 121.915 65.6097C117.82 65.6097 113.849 65.6097 109.799 65.6097C112.126 61.1112 114.396 56.7221 116.84 52.3018C121.863 52.3115 126.885 52.3211 131.868 52.4643C129.333 57.2947 126.716 62.0852 124.309 66.9791C123.554 68.5161 123.363 70.3309 122.892 72.0988C129.641 72.0988 136.166 72.0988 142.788 72.0988C143.514 70.0001 144.25 67.8753 145.037 65.6016C140.882 65.6016 136.945 65.6016 132.937 65.6016C135.254 61.11 137.517 56.721 139.966 52.3111C142.412 52.3111 144.857 52.3111 147.345 52.3111C147.829 50.0089 148.287 47.8345 148.769 45.548C146.878 45.548 145.14 45.548 143.427 45.4044C145.564 41.2927 147.626 37.1398 149.867 33.0855C151.12 30.8177 151.304 28.3248 151.993 25.9254C145.471 25.9254 139.066 25.9254 132.645 25.9254C132.182 28.0733 131.733 30.1545 131.257 32.3617C135.014 32.3617 138.615 32.3617 142.347 32.3617C142.159 32.7625 142.042 33.0352 141.906 33.2978C139.786 37.379 137.664 41.4589 135.361 45.5623C130.324 45.556 125.288 45.5497 120.291 45.407C122.087 41.964 123.797 38.4723 125.706 35.093C127.335 32.2088 128.363 29.1753 128.785 25.8802C122.375 25.8802 115.992 25.8802 109.534 25.8802C109.072 28.0079 108.612 30.1248 108.124 32.3707C111.879 32.3707 115.507 32.3707 119.256 32.3707C119.051 32.7727 118.916 33.0413 118.778 33.3077C116.656 37.3868 114.533 41.4656 112.223 45.5645C107.794 45.5571 103.364 45.5497 98.9452 45.3737C99.3133 38.883 99.6815 32.3922 100.051 25.8773C96.4368 25.8773 92.9879 25.8773 89.486 25.8773C87.0948 32.4384 84.7053 38.9946 82.1203 45.5772C79.3472 45.5684 76.5741 45.5596 73.8417 45.4052C75.6731 42.0325 76.2449 38.3331 76.5696 34.5883C76.9719 29.948 74.4098 26.5119 69.8112 26.1171C65.9544 25.786 62.0465 26.0491 58.0415 26.0491C57.5576 28.3072 57.0307 30.7288 56.5207 33.1539C55.6512 37.2879 54.7923 41.4241 53.817 45.6643C53.3813 47.8699 52.9456 50.0756 52.4292 52.421C51.0403 58.9494 49.6513 65.4777 48.249 72.0689C50.6615 72.0689 52.9679 72.0689 55.3287 72.0689C56.7152 65.4485 58.0915 58.8762 59.5364 52.164C59.7605 51.9686 59.9783 51.6133 60.2099 51.604C61.5873 51.549 62.9828 51.4943 64.2695 52.4624C65.0811 53.5611 64.948 54.8181 64.727 56.0172C64.09 59.4736 63.3369 62.9086 62.6851 66.3624C62.3328 68.2294 62.0942 70.1179 61.7929 72.0711C64.2845 72.0711 66.5593 72.0711 68.6594 72.0711C69.4267 68.0986 70.1569 64.2125 70.9331 60.3355C71.4632 57.6882 72.082 55.0558 71.7982 52.2964ZM173.747 45.1978C174.863 41.9765 175.978 38.7552 177.093 35.5339C177.162 35.5556 177.23 35.5773 177.299 35.599C174.673 47.7449 172.047 59.8907 169.401 72.13C171.429 72.13 173.277 72.0539 175.115 72.1598C176.14 72.2188 176.432 71.8284 176.624 70.912C179.028 59.4237 181.468 47.9427 183.903 36.4607C184.645 32.9586 185.399 29.459 186.161 25.8985C182.64 25.8985 179.197 25.8985 175.592 25.8985C171.869 36.0492 168.13 46.2447 164.392 56.4401C164.359 56.4267 164.326 56.4132 164.294 56.3998C165.158 46.24 166.023 36.0802 166.888 25.9067C163.201 25.9067 159.694 25.9067 156.182 25.9067C152.911 41.2988 149.651 56.6396 146.359 72.13C148.375 72.13 150.244 72.1072 152.112 72.1426C152.746 72.1546 152.972 71.9621 153.102 71.3141C155.055 61.5767 157.04 51.8457 159.026 42.1152C159.57 39.4537 160.144 36.7986 160.704 34.1406C160.774 34.1503 160.843 34.1601 160.913 34.1698C159.831 46.7915 158.75 59.4131 157.66 72.1274C159.774 72.1274 161.752 72.1554 163.727 72.0948C163.998 72.0865 164.394 71.6865 164.501 71.3857C167.579 62.7119 170.628 54.0277 173.747 45.1978ZM216.594 72.0971C216.748 71.7014 216.96 71.3182 217.048 70.9084C219.712 58.3943 222.376 45.8801 224.991 33.3557C225.169 32.5059 225.501 32.3481 226.268 32.3705C228.044 32.4222 229.824 32.4079 231.601 32.366C231.891 32.3592 232.378 32.1241 232.43 31.9113C232.907 29.9316 233.309 27.9337 233.739 25.9125C226.592 25.9125 219.528 25.9125 212.445 25.9125C211.986 28.0768 211.538 30.1867 211.064 32.4145C213.52 32.4145 215.796 32.4145 218.143 32.4145C215.332 45.6806 212.541 58.8485 209.728 72.1233C212.051 72.1233 214.235 72.1233 216.594 72.0971ZM313.562 52.2519C317.245 49.7929 320.928 47.3339 324.812 44.7407C321.977 44.2392 319.387 43.7812 316.669 43.3005C318.981 39.8812 321.187 36.62 323.392 33.3588C323.324 33.2795 323.256 33.2002 323.188 33.1208C317.224 37.0649 311.261 41.009 305.132 45.0622C307.94 45.6217 310.498 46.1317 313.173 46.6647C310.921 50.0764 308.734 53.3906 306.547 56.7048C306.604 56.7472 306.661 56.7897 306.718 56.8321C308.957 55.3307 311.196 53.8292 313.562 52.2519Z" fill="white"/>
<path d="M173.714 45.2715C170.628 54.0277 167.579 62.712 164.501 71.3858C164.394 71.6865 163.999 72.0865 163.727 72.0948C161.752 72.1555 159.774 72.1275 157.66 72.1275C158.75 59.4132 159.832 46.7915 160.913 34.1699C160.844 34.1601 160.774 34.1504 160.704 34.1406C160.144 36.7987 159.57 39.4538 159.027 42.1152C157.04 51.8458 155.055 61.5767 153.102 71.3142C152.973 71.9622 152.746 72.1547 152.113 72.1427C150.244 72.1072 148.375 72.13 146.359 72.13C149.651 56.6397 152.911 41.2989 156.182 25.9068C159.694 25.9068 163.202 25.9068 166.889 25.9068C166.023 36.0803 165.158 46.2401 164.294 56.3998C164.326 56.4133 164.359 56.4267 164.392 56.4402C168.131 46.2447 171.87 36.0493 175.592 25.8986C179.197 25.8986 182.64 25.8986 186.161 25.8986C185.399 29.459 184.645 32.9587 183.903 36.4608C181.468 47.9428 179.028 59.4237 176.624 70.9121C176.432 71.8285 176.14 72.2189 175.116 72.1599C173.277 72.054 171.429 72.13 169.401 72.13C172.047 59.8908 174.673 47.7449 177.299 35.5991C177.23 35.5774 177.162 35.5557 177.093 35.534C175.978 38.7553 174.863 41.9765 173.714 45.2715Z" fill="#3D3C41"/>
<path d="M73.8013 45.5509C76.5744 45.5596 79.3475 45.5684 82.3118 45.5666C84.578 45.5554 86.653 45.5547 88.8312 45.5662C90.0545 45.567 91.1746 45.5555 92.3929 45.5524C94.6392 45.5546 96.7872 45.5485 98.9352 45.5423C103.365 45.5497 107.794 45.5571 112.415 45.5626C115.155 45.555 117.703 45.5492 120.251 45.5434C125.288 45.5497 130.325 45.556 135.554 45.5597C138.298 45.5541 140.85 45.551 143.402 45.5479C145.14 45.5479 146.878 45.5479 148.769 45.5479C148.288 47.8345 147.83 50.0089 147.345 52.3111C144.858 52.3111 142.412 52.3111 139.774 52.3122C137.024 52.3191 134.466 52.3249 131.908 52.3308C126.885 52.3211 121.863 52.3115 116.648 52.309C113.889 52.3192 111.322 52.3223 108.754 52.3254C105.44 52.3151 102.125 52.3047 98.6199 52.3045C96.2015 52.3173 93.974 52.3201 91.7465 52.323C90.051 52.3174 88.3556 52.3118 86.468 52.3108C84.1263 52.3188 81.9767 52.3223 79.827 52.3258C77.1509 52.316 74.4747 52.3062 71.6075 52.3046C69.0136 52.3162 66.6107 52.3197 64.2078 52.3231C62.9831 51.4943 61.5877 51.549 60.2103 51.604C59.9787 51.6132 59.7609 51.9686 59.4086 52.2358C57.0237 52.2989 54.767 52.29 52.5103 52.2812C52.9459 50.0755 53.3816 47.8699 53.972 45.6143C56.4033 45.5582 58.68 45.552 61.0514 45.5514C62.2663 45.5449 63.3864 45.5329 64.6105 45.5289C67.7433 45.5416 70.7723 45.5462 73.8013 45.5509Z" fill="#AD2A44"/>
<path d="M229.61 52.3261C227.849 52.3261 226.088 52.3261 224.218 52.3261C224.684 50.1112 225.094 48.0494 225.581 46.0058C225.629 45.8071 226.145 45.6075 226.447 45.6008C228.286 45.5601 230.126 45.5752 232.157 45.5637C234.403 45.5551 236.458 45.5544 238.615 45.5661C239.839 45.5665 240.96 45.5545 242.179 45.5514C244.424 45.5544 246.571 45.5485 248.719 45.5427C253.148 45.55 257.578 45.5574 262.199 45.5627C264.937 45.5555 267.483 45.5505 270.029 45.5454C275.061 45.5527 280.092 45.5601 285.317 45.5624C288.067 45.5542 290.626 45.5511 293.184 45.5479C296.04 45.5479 298.896 45.5479 301.946 45.5479C301.544 46.3605 301.227 47.0192 300.893 47.6688C300.365 48.6977 299.724 49.6823 299.315 50.7559C298.845 51.9905 298.117 52.392 296.797 52.3256C294.451 52.2077 292.094 52.304 289.551 52.3117C286.803 52.3186 284.247 52.3244 281.691 52.3303C276.669 52.3212 271.646 52.3122 266.431 52.3095C263.672 52.3192 261.104 52.3226 258.537 52.3259C255.222 52.3157 251.908 52.3055 248.402 52.305C245.984 52.3173 243.757 52.3198 241.529 52.3224C239.834 52.3173 238.138 52.3123 236.251 52.3115C233.909 52.3192 231.76 52.3227 229.61 52.3261Z" fill="#AD2A45"/>
<path d="M216.506 72.1102C214.235 72.1233 212.052 72.1233 209.728 72.1233C212.541 58.8485 215.332 45.6806 218.143 32.4145C215.797 32.4145 213.52 32.4145 211.065 32.4145C211.538 30.1868 211.986 28.0769 212.445 25.9125C219.528 25.9125 226.592 25.9125 233.74 25.9125C233.31 27.9338 232.907 29.9317 232.43 31.9114C232.379 32.1241 231.892 32.3592 231.602 32.366C229.824 32.4079 228.045 32.4222 226.268 32.3705C225.501 32.3482 225.169 32.5059 224.991 33.3557C222.376 45.8801 219.712 58.3943 217.048 70.9084C216.96 71.3182 216.748 71.7015 216.506 72.1102Z" fill="#3D3C41"/>
<path d="M60.9566 45.546C58.6799 45.5521 56.4032 45.5583 54.0278 45.562C54.7925 41.4242 55.6514 37.288 56.5209 33.154C57.0309 30.7288 57.5577 28.3073 58.0416 26.0492C62.0467 26.0492 65.9545 25.7861 69.8113 26.1172C74.41 26.512 76.9721 29.9481 76.5697 34.5884C76.245 38.3332 75.6733 42.0326 73.8215 45.4781C70.7721 45.5463 67.7432 45.5417 64.675 45.4792C66.1678 45.1253 67.3714 44.2736 67.7358 42.7835C68.395 40.0885 68.9495 37.3537 69.3039 34.6041C69.506 33.0362 68.484 32.0308 66.8973 31.8523C65.895 31.7396 64.8697 31.8313 63.8152 31.8313C62.8579 36.4241 61.9072 40.985 60.9566 45.546Z" fill="#3C3B40"/>
<path d="M98.9405 45.4581C96.7873 45.5485 94.6393 45.5547 92.396 45.4591C92.5914 41.0757 92.8821 36.794 93.1728 32.5123C93.092 32.4986 93.0113 32.485 92.9305 32.4714C91.5297 36.8323 90.1289 41.1932 88.7281 45.5541C86.6531 45.5548 84.5781 45.5555 82.4097 45.5535C84.7057 38.9946 87.0952 32.4384 89.4865 25.8774C92.9883 25.8774 96.4372 25.8774 100.051 25.8774C99.6819 32.3923 99.3137 38.8831 98.9405 45.4581Z" fill="#3C3B40"/>
<path d="M238.512 45.5538C236.458 45.5545 234.404 45.5551 232.244 45.5465C234.512 38.9807 236.885 32.4241 239.255 25.8774C242.787 25.8774 246.233 25.8774 249.837 25.8774C249.466 32.398 249.098 38.886 248.724 45.4584C246.572 45.5486 244.424 45.5544 242.181 45.4583C242.377 41.0727 242.668 36.7891 242.96 32.5055C242.878 32.492 242.797 32.4784 242.716 32.4648C241.314 36.8278 239.913 41.1908 238.512 45.5538Z" fill="#3C3B40"/>
<path d="M189.422 45.5505C191.811 38.9943 194.201 32.4382 196.58 25.9082C200.118 25.9082 203.592 25.9082 207.158 25.9082C206.785 32.4368 206.415 38.9051 205.945 45.4666C203.697 45.5539 201.549 45.548 199.404 45.4491C199.697 41.0736 199.987 36.7912 200.277 32.5088C200.196 32.4951 200.114 32.4813 200.033 32.4676C198.633 36.8297 197.233 41.1918 195.745 45.5566C193.578 45.5563 191.5 45.5534 189.422 45.5505Z" fill="#3C3B40"/>
<path d="M281.672 52.3972C284.248 52.3245 286.803 52.3186 289.458 52.3215C287.296 56.7201 285.035 61.11 282.72 65.6047C286.729 65.6047 290.666 65.6047 294.817 65.6047C294.041 67.8497 293.317 69.9466 292.58 72.0783C285.991 72.0783 279.444 72.0783 272.66 72.0783C273.15 70.293 273.367 68.4525 274.138 66.8843C276.53 62.0219 279.132 57.2631 281.672 52.3972Z" fill="#3D3C41"/>
<path d="M258.523 52.3966C261.105 52.3225 263.672 52.3191 266.344 52.3244C264.179 56.7185 261.91 61.1039 259.588 65.5933C263.607 65.5933 267.57 65.5933 271.698 65.5933C270.956 67.7362 270.275 69.743 269.551 71.7346C269.485 71.9165 269.151 72.1131 268.94 72.1137C262.556 72.1338 256.172 72.1301 249.522 72.1301C250.026 70.29 250.242 68.4505 251.012 66.8826C253.398 62.022 255.995 57.2647 258.523 52.3966Z" fill="#3D3C41"/>
<path d="M131.888 52.3976C134.466 52.325 137.024 52.3192 139.682 52.3227C137.518 56.7211 135.254 61.11 132.938 65.6017C136.945 65.6017 140.882 65.6017 145.037 65.6017C144.25 67.8754 143.515 70.0002 142.788 72.0989C136.167 72.0989 129.642 72.0989 122.893 72.0989C123.363 70.331 123.554 68.5162 124.31 66.9792C126.716 62.0853 129.333 57.2948 131.888 52.3976Z" fill="#3E3D41"/>
<path d="M108.74 52.3963C111.322 52.3224 113.889 52.3193 116.561 52.3247C114.396 56.7222 112.126 61.1112 109.8 65.6097C113.85 65.6097 117.82 65.6097 121.915 65.6097C121.184 67.72 120.509 69.7116 119.786 71.6849C119.711 71.8889 119.34 72.1103 119.105 72.1112C112.748 72.1342 106.391 72.1296 99.7446 72.1296C100.243 70.2988 100.456 68.4633 101.223 66.9C103.611 62.0336 106.21 57.2703 108.74 52.3963Z" fill="#3D3C41"/>
<path d="M293.198 45.4762C290.626 45.5512 288.068 45.5543 285.405 45.5489C287.562 41.1984 289.823 36.8564 292.161 32.365C288.399 32.365 284.8 32.365 281.038 32.365C281.514 30.1519 281.962 28.0702 282.425 25.9224C288.837 25.9224 295.244 25.9224 301.963 25.9224C301.229 28.2294 300.75 30.5777 299.756 32.6825C297.721 36.9923 295.409 41.1714 293.198 45.4762Z" fill="#3C3B40"/>
<path d="M270.046 45.476C267.483 45.5505 264.937 45.5556 262.293 45.5525C264.331 41.4337 266.467 37.3232 268.603 33.2128C268.726 32.9756 268.851 32.7392 269.043 32.3723C265.289 32.3723 261.66 32.3723 257.904 32.3723C258.391 30.1306 258.85 28.0154 259.313 25.8848C265.77 25.8848 272.152 25.8848 278.66 25.8848C277.958 28.3642 277.747 30.8877 276.469 33.1856C274.234 37.2038 272.188 41.3273 270.046 45.476Z" fill="#3C3B40"/>
<path d="M120.271 45.4752C117.703 45.5492 115.155 45.5549 112.509 45.5526C114.534 41.4656 116.656 37.3868 118.778 33.3077C118.917 33.0413 119.051 32.7727 119.256 32.3707C115.507 32.3707 111.879 32.3707 108.124 32.3707C108.612 30.1248 109.072 28.0079 109.534 25.8802C115.992 25.8802 122.375 25.8802 128.785 25.8802C128.363 29.1753 127.335 32.2088 125.706 35.0929C123.797 38.4723 122.088 41.964 120.271 45.4752Z" fill="#3C3B40"/>
<path d="M143.414 45.4761C140.849 45.551 138.297 45.5541 135.644 45.5481C137.663 41.4589 139.786 37.379 141.906 33.2977C142.042 33.0352 142.159 32.7625 142.347 32.3617C138.615 32.3617 135.014 32.3617 131.257 32.3617C131.733 30.1545 132.182 28.0733 132.645 25.9254C139.066 25.9254 145.471 25.9254 151.993 25.9254C151.304 28.3248 151.12 30.8177 149.867 33.0855C147.626 37.1397 145.564 41.2927 143.414 45.4761Z" fill="#3C3B40"/>
<path d="M189.324 45.5636C191.5 45.5534 193.578 45.5563 195.848 45.5691C197.161 45.5667 198.281 45.5544 199.402 45.5422C201.549 45.548 203.697 45.5539 205.942 45.551C208.011 45.5423 209.982 45.5423 212.121 45.5423C211.64 47.8384 211.185 50.0103 210.706 52.2952C209.09 52.2952 207.503 52.2952 205.724 52.3051C203.306 52.3175 201.079 52.3199 198.852 52.3223C197.156 52.3173 195.46 52.3122 193.572 52.3115C191.231 52.3192 189.082 52.3227 186.933 52.3261C185.945 52.3261 184.958 52.3261 183.801 52.3261C183.967 51.4942 184.101 50.7802 184.251 50.0694C184.512 48.8336 184.839 47.6082 185.025 46.3616C185.129 45.6678 185.446 45.5517 186.046 45.5717C187.105 45.6069 188.166 45.5785 189.324 45.5636Z" fill="#AD2A45"/>
<path d="M313.499 52.2898C311.197 53.8292 308.958 55.3306 306.718 56.832C306.662 56.7896 306.605 56.7472 306.548 56.7048C308.735 53.3906 310.922 50.0763 313.173 46.6646C310.499 46.1317 307.94 45.6217 305.132 45.0622C311.261 41.0089 317.225 37.0649 323.188 33.1208C323.256 33.2001 323.324 33.2795 323.392 33.3588C321.187 36.62 318.982 39.8811 316.67 43.3005C319.388 43.7812 321.978 44.2392 324.813 44.7406C320.929 47.3339 317.246 49.7929 313.499 52.2898Z" fill="#AE2B45"/>
<path d="M52.47 52.3511C54.7671 52.29 57.0239 52.2989 59.3745 52.3058C58.092 58.8762 56.7156 65.4485 55.3292 72.0689C52.9684 72.0689 50.662 72.0689 48.2495 72.0689C49.6518 65.4777 51.0407 58.9494 52.47 52.3511Z" fill="#3D3C41"/>
<path d="M79.8172 52.4012C81.9764 52.3224 84.126 52.3189 86.3787 52.3246C84.4252 58.7142 82.3745 65.0966 80.2921 71.4685C80.2039 71.7381 79.8254 72.0955 79.5754 72.101C77.3289 72.1502 75.0808 72.1297 72.6704 72.1297C75.0773 65.5018 77.4424 58.9892 79.8172 52.4012Z" fill="#3D3C41"/>
<path d="M229.601 52.4015C231.76 52.3227 233.909 52.3192 236.162 52.3252C234.37 58.2296 232.48 64.1262 230.577 70.0185C229.893 72.1351 229.879 72.1305 227.62 72.1307C225.953 72.1308 224.286 72.1307 222.456 72.1307C224.862 65.5029 227.227 58.9898 229.601 52.4015Z" fill="#3D3C41"/>
<path d="M186.923 52.4016C189.082 52.3228 191.231 52.3194 193.483 52.3254C191.53 58.7166 189.479 65.1003 187.397 71.4734C187.309 71.7418 186.927 72.0952 186.675 72.1007C184.429 72.1497 182.182 72.1292 179.773 72.1292C182.182 65.4982 184.548 58.9875 186.923 52.4016Z" fill="#3D3C41"/>
<path d="M64.2386 52.3928C66.6105 52.3197 69.0134 52.3162 71.5122 52.32C72.0821 55.0558 71.4633 57.6882 70.9333 60.3355C70.1571 64.2125 69.4268 68.0986 68.6595 72.0711C66.5594 72.0711 64.2846 72.0711 61.793 72.0711C62.0944 70.1179 62.3329 68.2294 62.6853 66.3624C63.337 62.9086 64.0901 59.4737 64.7271 56.0172C64.9481 54.8181 65.0812 53.5611 64.2386 52.3928Z" fill="#3D3C41"/>
<path d="M91.7468 52.4163C93.9736 52.3201 96.2011 52.3173 98.5186 52.3152C98.353 56.8826 98.099 61.4494 97.8412 66.016C97.7279 68.0215 97.6068 70.0266 97.4869 72.0712C95.105 72.0712 92.8002 72.0712 90.3979 72.0712C90.8508 65.5071 91.2992 59.0084 91.7468 52.4163Z" fill="#3D3C41"/>
<path d="M198.853 52.4158C201.079 52.3199 203.306 52.3175 205.623 52.316C205.468 56.6447 205.224 60.9725 204.979 65.3003C204.852 67.5447 204.726 69.7891 204.597 72.0699C202.21 72.0699 199.905 72.0699 197.501 72.0699C197.955 65.5053 198.405 59.0073 198.853 52.4158Z" fill="#3D3C41"/>
<path d="M241.531 52.4159C243.757 52.3199 245.984 52.3173 248.301 52.3158C248.146 56.6442 247.902 60.9715 247.658 65.2989C247.531 67.543 247.406 69.7873 247.278 72.0709C244.89 72.0709 242.585 72.0709 240.184 72.0709C240.636 65.5066 241.084 59.008 241.531 52.4159Z" fill="#3D3C41"/>
<path d="M61.0513 45.5514C61.9072 40.9849 62.8579 36.424 63.8152 31.8312C64.8696 31.8312 65.895 31.7394 66.8973 31.8522C68.484 32.0307 69.5059 33.0361 69.3039 34.604C68.9495 37.3536 68.3949 40.0884 67.7358 42.7834C67.3714 44.2735 66.1678 45.1252 64.5711 45.471C63.3863 45.5329 62.2661 45.5449 61.0513 45.5514Z" fill="#FDFDFD"/>
<path d="M88.8311 45.5663C90.1286 41.1932 91.5294 36.8323 92.9302 32.4714C93.011 32.485 93.0918 32.4987 93.1725 32.5123C92.8818 36.794 92.5912 41.0758 92.2975 45.4508C91.1744 45.5556 90.0543 45.5671 88.8311 45.5663Z" fill="#FAFAFA"/>
<path d="M238.615 45.5661C239.913 41.1908 241.314 36.8278 242.715 32.4648C242.797 32.4784 242.878 32.4919 242.96 32.5055C242.668 36.7891 242.377 41.0727 242.083 45.4494C240.96 45.5546 239.839 45.5665 238.615 45.5661Z" fill="#F9F9FA"/>
<path d="M199.404 45.4491C198.281 45.5545 197.161 45.5667 195.937 45.5664C197.233 41.1918 198.633 36.8297 200.033 32.4676C200.114 32.4814 200.196 32.4951 200.277 32.5089C199.987 36.7912 199.697 41.0736 199.404 45.4491Z" fill="#F9F9F9"/>
</g>
<defs>
<clipPath id="clip0_1_449">
<rect width="363.585" height="95" fill="white"/>
</clipPath>
</defs>
</svg>
