<svg width="91" height="91" viewBox="0 0 91 91" fill="none" xmlns="http://www.w3.org/2000/svg">
<path d="M0.378655 45.0904C0.376178 53.0376 2.45241 60.7957 6.39963 67.6342L0 91L23.9123 84.7303C30.5008 88.3226 37.919 90.2165 45.4673 90.2194H45.4867C70.3463 90.2194 90.5835 69.9886 90.5941 45.1265C90.5984 33.0775 85.9101 21.7472 77.3943 13.2239C68.8774 4.70169 57.5531 0.00495437 45.4867 0C20.6229 0 0.388564 20.228 0.378655 45.0904ZM14.6193 66.4565L13.7264 65.0392C9.97314 59.0713 7.9921 52.1748 7.99493 45.0932C8.00272 24.4282 24.8207 7.61557 45.5009 7.61557C55.5158 7.61982 64.9277 11.5239 72.0068 18.6072C79.0855 25.6912 82.9807 35.1081 82.9782 45.1237C82.969 65.7887 66.1507 82.6034 45.4867 82.6034H45.4719C38.7435 82.5999 32.1446 80.793 26.3898 77.3784L25.0203 76.5662L10.8302 80.2866L14.6189 66.4561" fill="url(#paint0_linear_1_540)"/>
<path d="M34.2127 26.2398C33.3683 24.3631 32.4797 24.3252 31.6768 24.2923C31.0193 24.264 30.2676 24.2661 29.5167 24.2661C28.765 24.2661 27.5438 24.5489 26.5115 25.676C25.4782 26.8042 22.5664 29.5305 22.5664 35.0755C22.5664 40.6209 26.6053 45.9797 27.1683 46.7324C27.732 47.4837 34.9654 59.227 46.4213 63.7447C55.9422 67.499 57.8797 66.7523 59.946 66.5641C62.0127 66.3765 66.6146 63.8384 67.5535 61.2066C68.493 58.5751 68.493 56.3195 68.2113 55.8481C67.9296 55.3785 67.178 55.0965 66.0509 54.5331C64.9234 53.9693 59.3823 51.2427 58.3493 50.8665C57.316 50.4907 56.5647 50.3031 55.813 51.4317C55.0614 52.5584 52.9031 55.0965 52.2452 55.8481C51.588 56.6015 50.9302 56.6953 49.8034 56.1316C48.6756 55.5661 45.0458 54.3774 40.7394 50.5381C37.3888 47.5506 35.1268 43.8614 34.4693 42.7328C33.8118 41.6061 34.3988 40.9953 34.964 40.4337C35.4704 39.9287 36.0915 39.1176 36.6556 38.4597C37.2175 37.8015 37.4051 37.3319 37.7809 36.5802C38.1571 35.8279 37.9688 35.1697 37.6875 34.6059C37.4051 34.0422 35.2149 28.4682 34.2127 26.2398Z" fill="white"/>
<defs>
<linearGradient id="paint0_linear_1_540" x1="4529.71" y1="9100" x2="4529.71" y2="0" gradientUnits="userSpaceOnUse">
<stop stop-color="#F9F9F9"/>
<stop offset="1" stop-color="white"/>
</linearGradient>
</defs>
</svg>
