<svg width="33" height="32" viewBox="0 0 33 32" fill="none" xmlns="http://www.w3.org/2000/svg">
<path d="M15.6662 28.9999C8.13284 28.9999 1.99951 22.8666 1.99951 15.3332C1.99951 7.79991 8.13284 1.66658 15.6662 1.66658C23.1995 1.66658 29.3328 7.79991 29.3328 15.3332C29.3328 22.8666 23.1995 28.9999 15.6662 28.9999ZM15.6662 3.66658C9.22618 3.66658 3.99951 8.90658 3.99951 15.3332C3.99951 21.7599 9.22618 26.9999 15.6662 26.9999C22.1062 26.9999 27.3328 21.7599 27.3328 15.3332C27.3328 8.90658 22.1062 3.66658 15.6662 3.66658Z" fill="#440064"/>
<path d="M29.6663 30.3332C29.4129 30.3332 29.1596 30.2398 28.9596 30.0398L26.2929 27.3732C25.9063 26.9865 25.9063 26.3465 26.2929 25.9598C26.6796 25.5732 27.3196 25.5732 27.7063 25.9598L30.3729 28.6265C30.7596 29.0132 30.7596 29.6532 30.3729 30.0398C30.1729 30.2398 29.9196 30.3332 29.6663 30.3332Z" fill="#440064"/>
</svg>
